HIERARCHY
ROOT Hips
{
	OFFSET -0.104279 88.258125 2.461052
	CHANNELS 6 Xposition Yposition Zposition Zrotation Yrotation Xrotation 
	JOINT Spine
	{
		OFFSET -0.000000 8.814246 -2.080107
		CHANNELS 3 Zrotation Yrotation Xrotation
		JOINT Spine1
		{
			OFFSET 0.000000 8.844141 0.000000
			CHANNELS 3 Zrotation Yrotation Xrotation
			JOINT Spine2
			{
				OFFSET -0.000000 11.682268 0.000000
				CHANNELS 3 Zrotation Yrotation Xrotation
				JOINT Spine3
				{
					OFFSET 0.000000 11.746700 0.000000
					CHANNELS 3 Zrotation Yrotation Xrotation
					JOINT Neck
					{
						OFFSET 0.000000 17.658264 -0.000000
						CHANNELS 3 Zrotation Yrotation Xrotation
						JOINT Neck1
						{
							OFFSET -0.000000 5.101515 0.000000
							CHANNELS 3 Zrotation Yrotation Xrotation
							JOINT Head
							{
								OFFSET 0.000000 5.101515 -0.000000
								CHANNELS 3 Zrotation Yrotation Xrotation
								JOINT HeadEnd
								{
									OFFSET -0.000000 11.655085 -0.000000
									CHANNELS 3 Zrotation Yrotation Xrotation
									End Site
									{
										OFFSET 0.000000 0.000000 0.000000
									}
								}
							}
						}
					}
					JOINT RightShoulder
					{
						OFFSET -2.625389 11.175210 -0.000000
						CHANNELS 3 Zrotation Yrotation Xrotation
						JOINT RightArm
						{
							OFFSET 0.000000 10.434715 0.000000
							CHANNELS 3 Zrotation Yrotation Xrotation
							JOINT RightForeArm
							{
								OFFSET -0.000000 29.628420 -0.000000
								CHANNELS 3 Zrotation Yrotation Xrotation
								JOINT RightHand
								{
									OFFSET -0.000000 22.857611 0.000000
									CHANNELS 3 Zrotation Yrotation Xrotation
									JOINT RightHandThumb1
									{
										OFFSET -2.867323 3.959563 2.944291
										CHANNELS 3 Zrotation Yrotation Xrotation
										JOINT RightHandThumb2
										{
											OFFSET -0.000000 3.350399 0.000000
											CHANNELS 3 Zrotation Yrotation Xrotation
											JOINT RightHandThumb3
											{
												OFFSET 0.000000 3.756509 -0.000000
												CHANNELS 3 Zrotation Yrotation Xrotation
												JOINT RightHandThumb4
												{
													OFFSET -0.000000 3.147345 0.000000
													CHANNELS 3 Zrotation Yrotation Xrotation
													End Site
													{
														OFFSET 0.000000 0.000000 0.000000
													}
												}
											}
										}
									}
									JOINT RightHandIndex1
									{
										OFFSET -0.086752 10.030893 2.345280
										CHANNELS 3 Zrotation Yrotation Xrotation
										JOINT RightHandIndex2
										{
											OFFSET -0.000000 4.061090 0.000000
											CHANNELS 3 Zrotation Yrotation Xrotation
											JOINT RightHandIndex3
											{
												OFFSET -0.000000 3.248873 -0.000000
												CHANNELS 3 Zrotation Yrotation Xrotation
												JOINT RightHandIndex4
												{
													OFFSET -0.000000 2.639709 -0.000000
													CHANNELS 3 Zrotation Yrotation Xrotation
													End Site
													{
														OFFSET 0.000000 0.000000 0.000000
													}
												}
											}
										}
									}
									JOINT RightHandMiddle1
									{
										OFFSET 0.104102 9.502952 0.006768
										CHANNELS 3 Zrotation Yrotation Xrotation
										JOINT RightHandMiddle2
										{
											OFFSET 0.000000 4.568727 -0.000000
											CHANNELS 3 Zrotation Yrotation Xrotation
											JOINT RightHandMiddle3
											{
												OFFSET -0.000000 3.654981 0.000000
												CHANNELS 3 Zrotation Yrotation Xrotation
												JOINT RightHandMiddle4
												{
													OFFSET -0.000000 2.741236 0.000000
													CHANNELS 3 Zrotation Yrotation Xrotation
													End Site
													{
														OFFSET 0.000000 0.000000 0.000000
													}
												}
											}
										}
									}
									JOINT RightHandRing1
									{
										OFFSET 0.086752 8.921708 -2.267442
										CHANNELS 3 Zrotation Yrotation Xrotation
										JOINT RightHandRing2
										{
											OFFSET -0.000000 4.061090 0.000000
											CHANNELS 3 Zrotation Yrotation Xrotation
											JOINT RightHandRing3
											{
												OFFSET -0.000000 3.654981 -0.000000
												CHANNELS 3 Zrotation Yrotation Xrotation
												JOINT RightHandRing4
												{
													OFFSET -0.000000 2.741236 0.000000
													CHANNELS 3 Zrotation Yrotation Xrotation
													End Site
													{
														OFFSET 0.000000 0.000000 0.000000
													}
												}
											}
										}
									}
									JOINT RightHandPinky1
									{
										OFFSET -0.173504 7.976997 -4.467199
										CHANNELS 3 Zrotation Yrotation Xrotation
										JOINT RightHandPinky2
										{
											OFFSET 0.000000 3.350399 -0.000000
											CHANNELS 3 Zrotation Yrotation Xrotation
											JOINT RightHandPinky3
											{
												OFFSET -0.000000 2.842763 -0.000000
												CHANNELS 3 Zrotation Yrotation Xrotation
												JOINT RightHandPinky4
												{
													OFFSET -0.000000 2.639709 -0.000000
													CHANNELS 3 Zrotation Yrotation Xrotation
													End Site
													{
														OFFSET 0.000000 0.000000 0.000000
													}
												}
											}
										}
									}
									JOINT RightForeArmEnd
									{
										OFFSET 0.000000 0.000000 0.000000
										CHANNELS 3 Zrotation Yrotation Xrotation
										End Site
										{
											OFFSET 0.000000 0.000000 0.000000
										}
									}
								}
								JOINT RightArmEnd
								{
									OFFSET 0.000000 0.000000 0.000000
									CHANNELS 3 Zrotation Yrotation Xrotation
									End Site
									{
										OFFSET 0.000000 0.000000 0.000000
									}
								}
							}
						}
					}
					JOINT LeftShoulder
					{
						OFFSET 2.625389 11.175210 0.000000
						CHANNELS 3 Zrotation Yrotation Xrotation
						JOINT LeftArm
						{
							OFFSET 0.000000 10.813635 -0.000000
							CHANNELS 3 Zrotation Yrotation Xrotation
							JOINT LeftForeArm
							{
								OFFSET 0.000000 28.724781 0.000000
								CHANNELS 3 Zrotation Yrotation Xrotation
								JOINT LeftHand
								{
									OFFSET 0.644384 25.716167 -0.328871
									CHANNELS 3 Zrotation Yrotation Xrotation
									JOINT LeftHandThumb1
									{
										OFFSET 2.867323 3.959563 2.944291
										CHANNELS 3 Zrotation Yrotation Xrotation
										JOINT LeftHandThumb2
										{
											OFFSET -0.000000 3.350399 -0.000000
											CHANNELS 3 Zrotation Yrotation Xrotation
											JOINT LeftHandThumb3
											{
												OFFSET 0.000000 3.756509 -0.000000
												CHANNELS 3 Zrotation Yrotation Xrotation
												JOINT LeftHandThumb4
												{
													OFFSET 0.000000 3.100000 0.000000
													CHANNELS 3 Zrotation Yrotation Xrotation
													End Site
													{
														OFFSET 0.000000 0.000000 0.000000
													}
												}
											}
										}
									}
									JOINT LeftHandIndex1
									{
										OFFSET 0.086752 10.030893 2.345280
										CHANNELS 3 Zrotation Yrotation Xrotation
										JOINT LeftHandIndex2
										{
											OFFSET 0.000000 4.061090 0.000000
											CHANNELS 3 Zrotation Yrotation Xrotation
											JOINT LeftHandIndex3
											{
												OFFSET 0.000000 3.248873 0.000000
												CHANNELS 3 Zrotation Yrotation Xrotation
												JOINT LeftHandIndex4
												{
													OFFSET 0.000000 2.639709 0.000000
													CHANNELS 3 Zrotation Yrotation Xrotation
													End Site
													{
														OFFSET 0.000000 0.000000 0.000000
													}
												}
											}
										}
									}
									JOINT LeftHandMiddle1
									{
										OFFSET -0.104102 9.502952 0.006768
										CHANNELS 3 Zrotation Yrotation Xrotation
										JOINT LeftHandMiddle2
										{
											OFFSET 0.000000 4.568727 -0.000000
											CHANNELS 3 Zrotation Yrotation Xrotation
											JOINT LeftHandMiddle3
											{
												OFFSET 0.000000 3.654981 0.000000
												CHANNELS 3 Zrotation Yrotation Xrotation
												JOINT LeftHandMiddle4
												{
													OFFSET 0.000000 2.741236 0.000000
													CHANNELS 3 Zrotation Yrotation Xrotation
													End Site
													{
														OFFSET 0.000000 0.000000 0.000000
													}
												}
											}
										}
									}
									JOINT LeftHandRing1
									{
										OFFSET -0.086752 8.921708 -2.267442
										CHANNELS 3 Zrotation Yrotation Xrotation
										JOINT LeftHandRing2
										{
											OFFSET 0.000000 4.061090 0.000000
											CHANNELS 3 Zrotation Yrotation Xrotation
											JOINT LeftHandRing3
											{
												OFFSET -0.000000 3.654981 -0.000000
												CHANNELS 3 Zrotation Yrotation Xrotation
												JOINT LeftHandRing4
												{
													OFFSET -0.000000 2.741236 -0.000000
													CHANNELS 3 Zrotation Yrotation Xrotation
													End Site
													{
														OFFSET 0.000000 0.000000 0.000000
													}
												}
											}
										}
									}
									JOINT LeftHandPinky1
									{
										OFFSET 0.173504 7.976997 -4.467199
										CHANNELS 3 Zrotation Yrotation Xrotation
										JOINT LeftHandPinky2
										{
											OFFSET 0.000000 3.350399 0.000000
											CHANNELS 3 Zrotation Yrotation Xrotation
											JOINT LeftHandPinky3
											{
												OFFSET 0.000000 2.842763 -0.000000
												CHANNELS 3 Zrotation Yrotation Xrotation
												JOINT LeftHandPinky4
												{
													OFFSET 0.000000 2.639709 0.000000
													CHANNELS 3 Zrotation Yrotation Xrotation
													End Site
													{
														OFFSET 0.000000 0.000000 0.000000
													}
												}
											}
										}
									}
									JOINT LeftForeArmEnd
									{
										OFFSET 0.000000 0.000000 0.000000
										CHANNELS 3 Zrotation Yrotation Xrotation
										End Site
										{
											OFFSET 0.000000 0.000000 0.000000
										}
									}
								}
								JOINT LeftArmEnd
								{
									OFFSET 0.000000 0.000000 0.000000
									CHANNELS 3 Zrotation Yrotation Xrotation
									End Site
									{
										OFFSET 0.000000 0.000000 0.000000
									}
								}
							}
						}
					}
				}
			}
		}
	}
	JOINT RightUpLeg
	{
		OFFSET -11.289943 -0.000000 -0.000000
		CHANNELS 3 Zrotation Yrotation Xrotation
		JOINT RightLeg
		{
			OFFSET -0.000000 -38.200325 0.000000
			CHANNELS 3 Zrotation Yrotation Xrotation
			JOINT RightFoot
			{
				OFFSET 0.000000 -39.900856 0.000000
				CHANNELS 3 Zrotation Yrotation Xrotation
				JOINT RightToeBase
				{
					OFFSET -0.000000 -0.000000 15.261641
					CHANNELS 3 Zrotation Yrotation Xrotation
					JOINT RightToeBaseEnd
					{
						OFFSET -0.000000 -0.000000 7.370709
						CHANNELS 3 Zrotation Yrotation Xrotation
						End Site
						{
							OFFSET 0.000000 0.000000 0.000000
						}
					}
				}
				JOINT RightLegEnd
				{
					OFFSET 0.000000 0.000000 0.000000
					CHANNELS 3 Zrotation Yrotation Xrotation
					End Site
					{
						OFFSET 0.000000 0.000000 0.000000
					}
				}
			}
			JOINT RightUpLegEnd
			{
				OFFSET 0.000000 0.000000 0.000000
				CHANNELS 3 Zrotation Yrotation Xrotation
				End Site
				{
					OFFSET 0.000000 0.000000 0.000000
				}
			}
		}
	}
	JOINT LeftUpLeg
	{
		OFFSET 11.315661 0.000000 -0.000000
		CHANNELS 3 Zrotation Yrotation Xrotation
		JOINT LeftLeg
		{
			OFFSET -0.000000 -38.200325 0.000000
			CHANNELS 3 Zrotation Yrotation Xrotation
			JOINT LeftFoot
			{
				OFFSET 0.000000 -39.900856 0.000000
				CHANNELS 3 Zrotation Yrotation Xrotation
				JOINT LeftToeBase
				{
					OFFSET -0.000000 0.000000 15.261641
					CHANNELS 3 Zrotation Yrotation Xrotation
					JOINT LeftToeBaseEnd
					{
						OFFSET -0.000000 -0.000000 7.539996
						CHANNELS 3 Zrotation Yrotation Xrotation
						End Site
						{
							OFFSET 0.000000 0.000000 0.000000
						}
					}
				}
				JOINT LeftLegEnd
				{
					OFFSET 0.000000 0.000000 0.000000
					CHANNELS 3 Zrotation Yrotation Xrotation
					End Site
					{
						OFFSET 0.000000 0.000000 0.000000
					}
				}
			}
			JOINT LeftUpLegEnd
			{
				OFFSET 0.000000 0.000000 0.000000
				CHANNELS 3 Zrotation Yrotation Xrotation
				End Site
				{
					OFFSET 0.000000 0.000000 0.000000
				}
			}
		}
	}
}
MOTION
Frames: 4
Frame Time: 0.016667
-3.821304 87.202118 40.674610 3.299122 -1.505196 -14.825104 -3.055612 0.063289 6.998624 -0.898124 0.368750 3.042324 0.786696 0.252743 8.462172 2.673533 -0.316603 4.596168 -8.083313 0.971135 4.065125 0.762849 -0.186381 -5.301472 1.562848 0.399314 -18.639151 0.000000 0.000000 0.000000 89.429947 -0.653570 7.518916 67.349968 -10.036009 1.516972 0.313256 14.508488 28.259054 -5.767710 4.929632 -11.978433 17.184248 -2.009046 37.079903 0.000010 0.000010 -42.745674 -0.000011 0.000016 -29.793447 -0.000000 -0.000011 0.000004 45.082108 16.629097 -15.738633 31.953880 1.667876 -9.514223 31.983831 2.547700 -8.612094 0.000018 -0.000010 0.000004 47.851063 6.954932 -12.079708 33.653427 0.134132 -3.901771 33.660671 0.913807 -3.244968 0.000047 0.000061 0.000013 56.268188 -8.707708 -6.158546 38.229813 0.130154 5.482119 38.023468 -1.303340 4.188684 0.000008 -0.000953 0.000022 57.495346 -24.151480 -1.039695 36.659660 -1.235429 15.903077 36.720333 -4.206144 13.382048 0.000552 0.000005 -0.000019 0.000000 0.000000 0.000000 0.000000 0.000000 0.000000 -86.529266 -0.142047 12.154282 -44.291637 21.142641 16.476835 -2.228533 -17.344698 64.798233 4.688329 -2.070772 -7.105800 -11.668117 1.933840 39.418697 -0.000003 0.000019 -28.313496 0.000033 0.000004 -19.598831 -0.001637 -0.000027 0.003260 -23.176771 16.375668 -8.341032 -13.180423 0.657609 7.047970 -13.489273 1.542861 6.534152 0.000027 -0.000858 0.000013 -22.299116 6.757390 -8.357258 -14.106640 -0.317284 2.890276 -14.181823 0.523785 2.443464 -0.000587 -0.000039 0.000459 -25.465193 -8.539126 -6.889843 -16.675737 0.842569 -4.016490 -16.973236 -0.751065 -3.054074 0.000373 -0.000007 -0.000004 -26.814728 -24.234776 -7.548294 -16.586050 1.108947 -11.098693 -17.085855 -2.230182 -9.241055 0.001194 -0.000018 -0.000002 0.000000 0.000000 0.000000 0.000000 0.000000 0.000000 -12.302979 4.172843 12.791674 -0.369698 -1.018624 23.650116 6.407560 -8.018925 8.055454 -0.829340 0.637376 -19.702314 0.000000 0.000000 0.000000 0.000000 0.000000 0.000000 0.000000 0.000000 0.000000 0.490839 4.357001 9.863405 0.179236 0.791149 12.345668 -1.107244 9.301620 17.738646 1.098951 -1.436213 -19.664932 0.000000 0.000000 0.000000 0.000000 0.000000 0.000000 0.000000 0.000000 0.000000 
-3.263332 87.198753 40.829430 3.371613 -1.939145 -14.774416 -3.151152 0.098464 6.981004 -0.859902 0.364583 3.014585 0.714878 0.463103 8.409859 2.638566 -0.239833 4.584254 -8.089960 1.066609 4.153898 0.777505 -0.115573 -5.262998 1.546331 0.407559 -18.574118 0.000000 0.000000 0.000000 89.456833 -0.630216 7.569328 67.603401 -10.501348 1.942290 0.276004 14.343946 28.355225 -5.987861 4.414210 -11.794668 17.202799 -2.006200 37.076153 0.000010 0.000011 -42.786613 -0.000011 0.000016 -29.827362 -0.000001 -0.000010 0.000004 45.189472 16.640650 -15.646094 32.024906 1.667142 -9.507759 32.056110 2.547319 -8.607583 0.000017 -0.000009 0.000004 47.947166 6.961999 -12.004775 33.722855 0.133449 -3.898836 33.734447 0.913552 -3.243469 0.000046 0.000054 0.000015 56.343998 -8.721321 -6.145350 38.275517 0.131405 5.476356 38.072891 -1.303035 4.183202 0.000008 -0.000864 0.000021 57.554451 -24.199675 -1.079901 36.689720 -1.229089 15.876614 36.753456 -4.203759 13.357263 0.000566 0.000005 -0.000020 0.000000 0.000000 0.000000 0.000000 0.000000 0.000000 -86.632538 -0.126888 12.097755 -45.044754 21.547337 15.877292 -2.232149 -17.080479 64.295250 4.517121 -1.866935 -7.249924 -11.661925 1.935851 39.418621 -0.000004 0.000019 -28.301035 0.000031 0.000004 -19.597866 -0.001567 -0.000027 0.003367 -23.112339 16.368519 -8.210542 -13.111345 0.656969 7.049324 -13.421641 1.542936 6.534791 0.000027 -0.001051 0.000013 -22.247549 6.756894 -8.274929 -14.027431 -0.318034 2.890978 -14.111080 0.523896 2.444124 -0.000477 -0.000039 0.000447 -25.300377 -8.542508 -6.882998 -16.560724 0.845273 -4.015458 -16.854868 -0.750560 -3.053650 0.000428 -0.000007 -0.000004 -26.575880 -24.260580 -7.594664 -16.456118 1.114474 -11.091551 -16.953623 -2.228513 -9.237944 0.001123 -0.000017 -0.000003 0.000000 0.000000 0.000000 0.000000 0.000000 0.000000 -12.695707 4.419427 12.533209 -0.378703 -1.030262 23.746397 6.551160 -7.830616 8.364913 -0.848144 0.618213 -19.809971 0.000000 0.000000 0.000000 0.000000 0.000000 0.000000 0.000000 0.000000 0.000000 0.085525 4.715599 10.008237 0.170833 0.755825 12.242306 -0.793772 9.722698 17.646423 1.061142 -1.398247 -19.634838 0.000000 0.000000 0.000000 0.000000 0.000000 0.000000 0.000000 0.000000 0.000000 
-2.730643 87.195862 40.973026 3.418475 -2.362816 -14.712812 -3.237572 0.135227 6.965820 -0.826850 0.361475 2.984366 0.649165 0.668341 8.343475 2.604168 -0.162589 4.576271 -8.073133 1.162809 4.247193 0.797621 -0.031959 -5.217571 1.525864 0.413201 -18.509876 0.000000 0.000000 0.000000 89.446419 -0.601662 7.624482 67.865807 -10.936498 2.376381 0.236219 14.148913 28.485487 -6.258414 3.956993 -11.621030 17.211657 -2.003735 37.075916 0.000010 0.000011 -42.806469 -0.000012 0.000017 -29.845667 -0.000001 -0.000010 0.000004 45.258324 16.650839 -15.553214 32.080929 1.662698 -9.493154 32.112328 2.543282 -8.595925 0.000017 -0.000008 0.000004 47.999210 6.968388 -11.924494 33.769955 0.131447 -3.892624 33.786816 0.911993 -3.239420 0.000045 0.000048 0.000016 56.367607 -8.735816 -6.125875 38.290482 0.135025 5.466173 38.092010 -1.301005 4.174372 0.000008 -0.000777 0.000020 57.558781 -24.250862 -1.116803 36.685577 -1.216150 15.838374 36.753658 -4.195703 13.322936 0.000583 0.000005 -0.000020 0.000000 0.000000 0.000000 0.000000 0.000000 0.000000 -86.723244 -0.117964 12.052314 -45.795734 22.002810 15.315000 -2.234986 -16.799618 63.803806 4.364530 -1.630079 -7.380261 -11.654610 1.937955 39.419319 -0.000004 0.000019 -28.285349 0.000028 0.000004 -19.592476 -0.001484 -0.000027 0.003395 -23.034706 16.363464 -8.092716 -13.046728 0.654987 7.046476 -13.357527 1.541571 6.531871 0.000027 -0.001225 0.000014 -22.180527 6.756802 -8.199057 -13.951138 -0.319149 2.889995 -14.041750 0.523571 2.443458 -0.000363 -0.000040 0.000436 -25.121061 -8.546056 -6.877280 -16.446394 0.848733 -4.012775 -16.736319 -0.749463 -3.051922 0.000496 -0.000007 -0.000004 -26.314505 -24.285400 -7.643867 -16.325897 1.122211 -11.080558 -16.817898 -2.224898 -9.231117 0.001056 -0.000017 -0.000004 0.000000 0.000000 0.000000 0.000000 0.000000 0.000000 -13.037203 4.640422 12.253252 -0.386885 -1.040215 23.821878 6.656037 -7.641930 8.700682 -0.861333 0.599442 -19.921228 0.000000 0.000000 0.000000 0.000000 0.000000 0.000000 0.000000 0.000000 0.000000 -0.284532 5.061062 10.125376 0.163288 0.722434 12.155208 -0.486559 10.127335 17.540735 1.024929 -1.358722 -19.603840 0.000000 0.000000 0.000000 0.000000 0.000000 0.000000 0.000000 0.000000 0.000000 
-2.227683 87.194359 41.103966 3.430306 -2.774846 -14.642687 -3.310209 0.173305 6.954401 -0.799068 0.359527 2.952066 0.593649 0.866367 8.268158 2.571745 -0.084960 4.574453 -8.031489 1.253622 4.343815 0.823663 0.059874 -5.164159 1.502380 0.415278 -18.448027 0.000000 0.000000 0.000000 89.392319 -0.566628 7.687170 68.120766 -11.334965 2.823984 0.193595 13.925585 28.641630 -6.586960 3.553344 -11.459184 17.213852 -2.001978 37.077614 0.000010 0.000012 -42.812473 -0.000013 0.000017 -29.853516 -0.000001 -0.000010 0.000003 45.300224 16.658861 -15.462170 32.127346 1.654255 -9.469585 32.157658 2.535320 -8.576580 0.000017 -0.000008 0.000004 48.017490 6.973721 -11.840136 33.800079 0.128017 -3.882922 33.823318 0.909049 -3.232689 0.000044 0.000043 0.000017 56.347614 -8.751044 -6.098017 38.281361 0.141136 5.451358 38.087009 -1.297166 4.162095 0.000009 -0.000695 0.000019 57.514061 -24.306015 -1.142999 36.653370 -1.196297 15.788419 36.726982 -4.181705 13.279353 0.000596 0.000005 -0.000021 0.000000 0.000000 0.000000 0.000000 0.000000 0.000000 -86.793663 -0.114304 12.016207 -46.527275 22.519423 14.802829 -2.238571 -16.504379 63.333370 4.227255 -1.322655 -7.493094 -11.650832 1.940283 39.418812 -0.000005 0.000019 -28.277058 0.000025 0.000003 -19.590141 -0.001385 -0.000027 0.003339 -22.966337 16.360662 -7.991298 -12.998837 0.651460 7.039040 -13.309189 1.538556 6.525329 0.000027 -0.001372 0.000014 -22.115953 6.757149 -8.131242 -13.889467 -0.320727 2.887235 -13.985440 0.522739 2.441439 -0.000252 -0.000040 0.000429 -24.941433 -8.549831 -6.869090 -16.342962 0.853080 -4.008432 -16.628166 -0.747708 -3.048856 0.000587 -0.000006 -0.000003 -26.044794 -24.309172 -7.686345 -16.204187 1.132535 -11.065613 -16.687328 -2.219129 -9.220656 0.000993 -0.000016 -0.000005 0.000000 0.000000 0.000000 0.000000 0.000000 0.000000 -13.313745 4.829131 11.955011 -0.393963 -1.047713 23.871357 6.717265 -7.453208 9.069358 -0.867808 0.580613 -20.034863 0.000000 0.000000 0.000000 0.000000 0.000000 0.000000 0.000000 0.000000 0.000000 -0.609486 5.391006 10.219893 0.156581 0.691819 12.077624 -0.187031 10.511827 17.415903 0.991593 -1.318330 -19.568598 0.000000 0.000000 0.000000 0.000000 0.000000 0.000000 0.000000 0.000000 0.000000 
